<svg width="29" height="21" viewBox="0 0 29 21" fill="none" xmlns="http://www.w3.org/2000/svg">
<path d="M9.15273 2C8.98066 2.02458 9.81776 2.94919 9.84399 2.97929C11.8362 5.2654 13.8698 7.52984 16.027 9.66153C19.4409 13.0351 23.0702 16.0429 26.9784 18.8016C27.0864 18.8778 27.7127 19.2689 27.2601 19.2689C26.6702 19.2689 26.0476 19.1181 25.4679 19.0384C23.8686 18.8187 22.269 18.6024 20.6738 18.3536C17.1816 17.8089 13.7157 17.1223 10.2536 16.4142C8.30833 16.0163 6.34727 15.6203 4.46748 14.9676C3.50176 14.6323 2.24133 14.424 2.03524 13.3163C1.83924 12.2627 2.51133 10.7714 2.79052 9.78315C3.14183 8.5396 3.61857 7.30317 4.17305 6.1348C4.66327 5.10183 4.95217 4.09564 5.58118 3.15211" stroke="#18BBE0" stroke-width="3" stroke-linecap="round"/>
<path d="M8.08435 4.51669C8.36813 4.83201 8.62677 5.18403 8.94234 5.47002C9.37787 5.86471 9.88331 6.23116 10.2623 6.68001C10.5874 7.06491 10.9994 7.36576 11.355 7.72133C11.8886 8.25494 12.379 8.86663 12.939 9.36766C13.7634 10.1053 14.5333 10.9044 15.3516 11.6483C15.9741 12.2142 16.6475 12.7178 17.2583 13.2946C18.1494 14.1362 18.9804 15.0797 20.0963 15.6376C20.1645 15.6717 20.7423 15.9346 20.5436 15.9346C20.0764 15.9346 19.4983 15.7628 19.0476 15.6376C18.3534 15.4448 17.6213 15.2764 16.9136 15.0619C14.7701 14.4124 12.6869 13.569 10.497 13.0636C9.7376 12.8884 9.00074 12.6608 8.24935 12.466C7.45038 12.2588 6.51635 12.1623 5.77437 11.7913C5.51512 11.6617 5.28456 11.4591 5.02637 11.3183C4.80957 11.2 5.24862 10.4513 5.31237 10.3393C5.74141 9.58559 6.83036 8.88151 6.83036 7.945C6.83036 7.60097 6.75519 7.50766 6.58103 7.22267C6.52662 7.13365 6.55505 7.14576 6.66169 7.18601C7.18311 7.38277 7.68893 7.77137 8.14668 8.08067C9.04204 8.68564 10.0572 9.20116 10.9077 9.86265C11.0453 9.96972 11.3103 10.1766 11.3843 10.3246" stroke="#18BBE0" stroke-width="5" stroke-linecap="round"/>
</svg>
