<svg width="29" height="21" viewBox="0 0 29 21" fill="none" xmlns="http://www.w3.org/2000/svg">
<path d="M20.2696 2C20.4417 2.02458 19.6046 2.94919 19.5784 2.97929C17.5862 5.2654 15.5526 7.52984 13.3954 9.66153C9.98146 13.0351 6.35217 16.0429 2.44393 18.8016C2.33597 18.8778 1.70971 19.2689 2.1623 19.2689C2.75213 19.2689 3.37478 19.1181 3.95448 19.0384C5.5538 18.8187 7.15336 18.6024 8.74853 18.3536C12.2408 17.8089 15.7067 17.1223 19.1687 16.4142C21.114 16.0163 23.0751 15.6203 24.9549 14.9676C25.9206 14.6323 27.181 14.424 27.3871 13.3163C27.5831 12.2627 26.911 10.7714 26.6318 9.78315C26.2805 8.5396 25.8038 7.30317 25.2493 6.1348C24.7591 5.10183 24.4702 4.09564 23.8412 3.15211" stroke="#333333" stroke-width="3" stroke-linecap="round"/>
<path d="M21.338 4.51669C21.0542 4.83201 20.7956 5.18403 20.48 5.47002C20.0445 5.86471 19.5391 6.23116 19.16 6.68001C18.835 7.06491 18.4229 7.36576 18.0674 7.72133C17.5338 8.25494 17.0433 8.86663 16.4834 9.36766C15.659 10.1053 14.889 10.9044 14.0707 11.6483C13.4483 12.2142 12.7749 12.7178 12.1641 13.2946C11.273 14.1362 10.442 15.0797 9.32611 15.6376C9.25785 15.6717 8.68009 15.9346 8.87878 15.9346C9.34598 15.9346 9.92406 15.7628 10.3748 15.6376C11.0689 15.4448 11.8011 15.2764 12.5087 15.0619C14.6522 14.4124 16.7354 13.569 18.9254 13.0636C19.6848 12.8884 20.4216 12.6608 21.173 12.466C21.972 12.2588 22.906 12.1623 23.648 11.7913C23.9072 11.6617 24.1378 11.4591 24.396 11.3183C24.6128 11.2 24.1737 10.4513 24.11 10.3393C23.6809 9.58559 22.592 8.88151 22.592 7.945C22.592 7.60097 22.6672 7.50766 22.8413 7.22267C22.8957 7.13365 22.8673 7.14576 22.7607 7.18601C22.2393 7.38277 21.7334 7.77137 21.2757 8.08067C20.3803 8.68564 19.3652 9.20116 18.5147 9.86265C18.377 9.96972 18.112 10.1766 18.038 10.3246" stroke="#333333" stroke-width="5" stroke-linecap="round"/>
</svg>
